<mxfile host="app.diagrams.net" agent="Mozilla/5.0 (X11; Ubuntu; Linux x86_64; rv:133.0) Gecko/20100101 Firefox/133.0" version="25.0.3">
  <diagram name="Page-1" id="58cdce13-f638-feb5-8d6f-7d28b1aa9fa0">
    <mxGraphModel dx="3306" dy="1115" grid="1" gridSize="5" guides="1" tooltips="1" connect="1" arrows="1" fold="1" page="1" pageScale="1" pageWidth="1100" pageHeight="850" background="none" math="0" shadow="0">
      <root>
        <mxCell id="0" />
        <mxCell id="1" parent="0" />
        <mxCell id="2a3bc250acf0617d-8" value="butterfly_unit" style="shape=umlFrame;whiteSpace=wrap;html=1;rounded=1;shadow=0;comic=0;labelBackgroundColor=none;strokeWidth=1;fontFamily=NewsGotT;fontSize=12;align=center;movable=1;resizable=1;rotatable=1;deletable=1;editable=1;locked=0;connectable=1;width=70;height=30;" parent="1" vertex="1">
          <mxGeometry x="160" y="900" width="720" height="279.5" as="geometry" />
        </mxCell>
        <mxCell id="nh-JWcSBpbhqLz3bGZsN-216" style="edgeStyle=none;shape=connector;rounded=0;orthogonalLoop=1;jettySize=auto;html=1;exitX=1;exitY=0.25;exitDx=0;exitDy=0;exitPerimeter=0;strokeColor=default;align=center;verticalAlign=middle;fontFamily=Helvetica;fontSize=11;fontColor=default;labelBackgroundColor=default;startArrow=none;startFill=0;startSize=3;endArrow=classic;entryX=0;entryY=0.5;entryDx=0;entryDy=0;entryPerimeter=0;endFill=1;" edge="1" parent="1" target="nh-JWcSBpbhqLz3bGZsN-167">
          <mxGeometry relative="1" as="geometry">
            <mxPoint x="260" y="340.5" as="targetPoint" />
            <mxPoint x="179.99999999999977" y="340" as="sourcePoint" />
          </mxGeometry>
        </mxCell>
        <mxCell id="nh-JWcSBpbhqLz3bGZsN-66" value="" style="endArrow=none;html=1;rounded=0;endFill=0;fontFamily=NewsGotT;entryX=0;entryY=0.5;entryDx=0;entryDy=0;" edge="1" parent="1" target="nh-JWcSBpbhqLz3bGZsN-3">
          <mxGeometry width="50" height="50" relative="1" as="geometry">
            <mxPoint x="40" y="50" as="sourcePoint" />
            <mxPoint x="115" y="120" as="targetPoint" />
            <Array as="points">
              <mxPoint x="100" y="50" />
              <mxPoint x="100" y="120" />
            </Array>
          </mxGeometry>
        </mxCell>
        <mxCell id="nh-JWcSBpbhqLz3bGZsN-67" value="clk" style="edgeLabel;html=1;align=right;verticalAlign=middle;resizable=0;points=[];fontFamily=NewsGotT;" vertex="1" connectable="0" parent="nh-JWcSBpbhqLz3bGZsN-66">
          <mxGeometry x="-0.2438" y="1" relative="1" as="geometry">
            <mxPoint x="-67" y="1" as="offset" />
          </mxGeometry>
        </mxCell>
        <mxCell id="nh-JWcSBpbhqLz3bGZsN-95" value="" style="endArrow=none;html=1;rounded=0;startArrow=oval;startFill=1;startSize=3;fontFamily=NewsGotT;entryX=0;entryY=0.25;entryDx=0;entryDy=0;entryPerimeter=0;" edge="1" parent="1" target="nh-JWcSBpbhqLz3bGZsN-167">
          <mxGeometry width="50" height="50" relative="1" as="geometry">
            <mxPoint x="100" y="50" as="sourcePoint" />
            <mxPoint x="313" y="315" as="targetPoint" />
            <Array as="points">
              <mxPoint x="325" y="50" />
              <mxPoint x="325" y="320" />
            </Array>
          </mxGeometry>
        </mxCell>
        <mxCell id="nh-JWcSBpbhqLz3bGZsN-97" value="x0_re_i" style="endArrow=classic;html=1;rounded=0;align=right;entryX=0;entryY=0.25;entryDx=0;entryDy=0;fontFamily=NewsGotT;" edge="1" parent="1" target="nh-JWcSBpbhqLz3bGZsN-1">
          <mxGeometry x="-1" y="-10" width="50" height="50" relative="1" as="geometry">
            <mxPoint x="40" y="100" as="sourcePoint" />
            <mxPoint x="120.00000000000028" y="100.44000000000005" as="targetPoint" />
            <mxPoint x="-10" y="-10" as="offset" />
          </mxGeometry>
        </mxCell>
        <mxCell id="nh-JWcSBpbhqLz3bGZsN-98" value="x0_im_i" style="endArrow=classic;html=1;rounded=0;entryX=0;entryY=0.25;entryDx=0;entryDy=0;align=right;fontFamily=NewsGotT;" edge="1" parent="1">
          <mxGeometry x="-1" y="5" width="50" height="50" relative="1" as="geometry">
            <mxPoint x="40" y="220" as="sourcePoint" />
            <mxPoint x="119.99999999999977" y="220" as="targetPoint" />
            <mxPoint x="-5" y="5" as="offset" />
          </mxGeometry>
        </mxCell>
        <mxCell id="nh-JWcSBpbhqLz3bGZsN-115" value="x1_re_i" style="endArrow=classic;html=1;rounded=0;align=right;entryX=0;entryY=0.25;entryDx=0;entryDy=0;fontFamily=NewsGotT;" edge="1" parent="1">
          <mxGeometry x="-1" y="-10" width="50" height="50" relative="1" as="geometry">
            <mxPoint x="40" y="340" as="sourcePoint" />
            <mxPoint x="119.99999999999977" y="340" as="targetPoint" />
            <mxPoint x="-10" y="-10" as="offset" />
          </mxGeometry>
        </mxCell>
        <mxCell id="nh-JWcSBpbhqLz3bGZsN-116" value="x1_im_i" style="endArrow=classic;html=1;rounded=0;entryX=0;entryY=0.25;entryDx=0;entryDy=0;align=right;fontFamily=NewsGotT;" edge="1" parent="1">
          <mxGeometry x="-1" y="5" width="50" height="50" relative="1" as="geometry">
            <mxPoint x="40" y="460" as="sourcePoint" />
            <mxPoint x="119.99999999999977" y="460" as="targetPoint" />
            <mxPoint x="-5" y="5" as="offset" />
          </mxGeometry>
        </mxCell>
        <mxCell id="nh-JWcSBpbhqLz3bGZsN-117" value="" style="endArrow=oval;html=1;rounded=0;exitX=0;exitY=0.5;exitDx=0;exitDy=0;endFill=1;startSize=3;endSize=3;" edge="1" parent="1">
          <mxGeometry width="50" height="50" relative="1" as="geometry">
            <mxPoint x="119.99999999999977" y="240" as="sourcePoint" />
            <mxPoint x="100" y="120" as="targetPoint" />
            <Array as="points">
              <mxPoint x="100" y="240" />
            </Array>
          </mxGeometry>
        </mxCell>
        <mxCell id="nh-JWcSBpbhqLz3bGZsN-118" value="" style="endArrow=oval;html=1;rounded=0;exitX=0;exitY=0.5;exitDx=0;exitDy=0;endFill=1;startSize=3;endSize=3;exitPerimeter=0;" edge="1" parent="1">
          <mxGeometry width="50" height="50" relative="1" as="geometry">
            <mxPoint x="119.99999999999977" y="360" as="sourcePoint" />
            <mxPoint x="100" y="240" as="targetPoint" />
            <Array as="points">
              <mxPoint x="100" y="360" />
            </Array>
          </mxGeometry>
        </mxCell>
        <mxCell id="nh-JWcSBpbhqLz3bGZsN-119" value="" style="endArrow=oval;html=1;rounded=0;exitX=0;exitY=0.5;exitDx=0;exitDy=0;endFill=1;startSize=3;endSize=3;" edge="1" parent="1">
          <mxGeometry width="50" height="50" relative="1" as="geometry">
            <mxPoint x="119.99999999999977" y="480" as="sourcePoint" />
            <mxPoint x="100" y="360" as="targetPoint" />
            <Array as="points">
              <mxPoint x="100" y="480" />
            </Array>
          </mxGeometry>
        </mxCell>
        <mxCell id="nh-JWcSBpbhqLz3bGZsN-120" value="" style="endArrow=classic;html=1;rounded=0;entryX=0;entryY=0.75;entryDx=0;entryDy=0;endFill=1;fontFamily=NewsGotT;" edge="1" parent="1" target="nh-JWcSBpbhqLz3bGZsN-1">
          <mxGeometry width="50" height="50" relative="1" as="geometry">
            <mxPoint x="40" y="70" as="sourcePoint" />
            <mxPoint x="110" y="140" as="targetPoint" />
            <Array as="points">
              <mxPoint x="90" y="70" />
              <mxPoint x="90" y="140" />
            </Array>
          </mxGeometry>
        </mxCell>
        <mxCell id="nh-JWcSBpbhqLz3bGZsN-121" value="rstn" style="edgeLabel;html=1;align=right;verticalAlign=middle;resizable=0;points=[];fontFamily=NewsGotT;" vertex="1" connectable="0" parent="nh-JWcSBpbhqLz3bGZsN-120">
          <mxGeometry x="-0.2438" y="1" relative="1" as="geometry">
            <mxPoint x="-61" y="-3" as="offset" />
          </mxGeometry>
        </mxCell>
        <mxCell id="nh-JWcSBpbhqLz3bGZsN-123" value="" style="endArrow=oval;html=1;rounded=0;exitX=0;exitY=0.75;exitDx=0;exitDy=0;endFill=1;startSize=6;endSize=3;startArrow=classic;startFill=1;" edge="1" parent="1">
          <mxGeometry width="50" height="50" relative="1" as="geometry">
            <mxPoint x="119.99999999999977" y="260" as="sourcePoint" />
            <mxPoint x="90" y="140" as="targetPoint" />
            <Array as="points">
              <mxPoint x="90" y="260" />
            </Array>
          </mxGeometry>
        </mxCell>
        <mxCell id="nh-JWcSBpbhqLz3bGZsN-124" value="" style="endArrow=oval;html=1;rounded=0;exitX=0;exitY=0.75;exitDx=0;exitDy=0;endFill=1;startSize=6;endSize=3;startArrow=classic;startFill=1;" edge="1" parent="1">
          <mxGeometry width="50" height="50" relative="1" as="geometry">
            <mxPoint x="119.99999999999977" y="380" as="sourcePoint" />
            <mxPoint x="90" y="260" as="targetPoint" />
            <Array as="points">
              <mxPoint x="90" y="380" />
            </Array>
          </mxGeometry>
        </mxCell>
        <mxCell id="nh-JWcSBpbhqLz3bGZsN-125" value="" style="endArrow=oval;html=1;rounded=0;exitX=0;exitY=0.75;exitDx=0;exitDy=0;endFill=1;startSize=6;endSize=3;startArrow=classic;startFill=1;" edge="1" parent="1">
          <mxGeometry width="50" height="50" relative="1" as="geometry">
            <mxPoint x="119.99999999999977" y="500" as="sourcePoint" />
            <mxPoint x="90" y="380" as="targetPoint" />
            <Array as="points">
              <mxPoint x="90" y="500" />
            </Array>
          </mxGeometry>
        </mxCell>
        <mxCell id="nh-JWcSBpbhqLz3bGZsN-164" value="" style="group;fontFamily=NewsGotT;" vertex="1" connectable="0" parent="1">
          <mxGeometry x="660" y="350" width="73" height="70" as="geometry" />
        </mxCell>
        <mxCell id="nh-JWcSBpbhqLz3bGZsN-156" value="&lt;font&gt;ADD/&lt;br&gt;SUB&lt;br&gt;&lt;/font&gt;" style="rounded=0;whiteSpace=wrap;html=1;points=[[0,0.25,0,0,0],[0,0.5,0,0,0],[0,0.75,0,0,0],[1,0.3,0,0,0],[1,0.7,0,0,0]];fontFamily=NewsGotT;" vertex="1" parent="nh-JWcSBpbhqLz3bGZsN-164">
          <mxGeometry width="70" height="70" as="geometry" />
        </mxCell>
        <mxCell id="nh-JWcSBpbhqLz3bGZsN-157" value="A" style="text;html=1;align=center;verticalAlign=middle;resizable=0;points=[];autosize=1;strokeColor=none;fillColor=none;fontSize=11;spacing=-6;fontFamily=NewsGotT;" vertex="1" parent="nh-JWcSBpbhqLz3bGZsN-164">
          <mxGeometry y="12" width="10" height="10" as="geometry" />
        </mxCell>
        <mxCell id="nh-JWcSBpbhqLz3bGZsN-158" value="B" style="text;html=1;align=center;verticalAlign=middle;resizable=0;points=[];autosize=1;strokeColor=none;fillColor=none;fontSize=11;spacing=-6;fontFamily=NewsGotT;" vertex="1" parent="nh-JWcSBpbhqLz3bGZsN-164">
          <mxGeometry y="29" width="10" height="10" as="geometry" />
        </mxCell>
        <mxCell id="nh-JWcSBpbhqLz3bGZsN-159" value="CIN" style="text;html=1;align=center;verticalAlign=middle;resizable=0;points=[];autosize=1;strokeColor=none;fillColor=none;fontSize=11;spacing=-8;fontFamily=NewsGotT;" vertex="1" parent="nh-JWcSBpbhqLz3bGZsN-164">
          <mxGeometry y="46" width="20" height="10" as="geometry" />
        </mxCell>
        <mxCell id="nh-JWcSBpbhqLz3bGZsN-162" value="R" style="text;html=1;align=center;verticalAlign=middle;resizable=0;points=[];autosize=1;strokeColor=none;fillColor=none;fontSize=11;spacing=-6;fontFamily=NewsGotT;" vertex="1" parent="nh-JWcSBpbhqLz3bGZsN-164">
          <mxGeometry x="58" y="15" width="10" height="10" as="geometry" />
        </mxCell>
        <mxCell id="nh-JWcSBpbhqLz3bGZsN-163" value="V" style="text;html=1;align=center;verticalAlign=middle;resizable=0;points=[];autosize=1;strokeColor=none;fillColor=none;fontSize=11;spacing=-6;fontFamily=NewsGotT;" vertex="1" parent="nh-JWcSBpbhqLz3bGZsN-164">
          <mxGeometry x="58" y="43" width="10" height="10" as="geometry" />
        </mxCell>
        <mxCell id="nh-JWcSBpbhqLz3bGZsN-175" value="" style="group" vertex="1" connectable="0" parent="1">
          <mxGeometry x="350" y="300" width="70" height="80" as="geometry" />
        </mxCell>
        <mxCell id="nh-JWcSBpbhqLz3bGZsN-167" value="&lt;font&gt;MUL&lt;/font&gt;" style="rounded=0;whiteSpace=wrap;html=1;points=[[0,0.25,0,0,0],[0,0.5,0,0,0],[0,0.75,0,0,0],[1,0.3,0,0,0],[1,0.7,0,0,0]];fontFamily=NewsGotT;" vertex="1" parent="nh-JWcSBpbhqLz3bGZsN-175">
          <mxGeometry width="70" height="80" as="geometry" />
        </mxCell>
        <mxCell id="nh-JWcSBpbhqLz3bGZsN-168" value="A" style="text;html=1;align=center;verticalAlign=middle;resizable=0;points=[];autosize=1;strokeColor=none;fillColor=none;fontSize=11;spacing=-6;fontFamily=NewsGotT;" vertex="1" parent="nh-JWcSBpbhqLz3bGZsN-175">
          <mxGeometry y="34.285714285714285" width="10" height="10" as="geometry" />
        </mxCell>
        <mxCell id="nh-JWcSBpbhqLz3bGZsN-169" value="B" style="text;html=1;align=center;verticalAlign=middle;resizable=0;points=[];autosize=1;strokeColor=none;fillColor=none;fontSize=11;spacing=-6;fontFamily=NewsGotT;" vertex="1" parent="nh-JWcSBpbhqLz3bGZsN-175">
          <mxGeometry y="53.71428571428571" width="10" height="10" as="geometry" />
        </mxCell>
        <mxCell id="nh-JWcSBpbhqLz3bGZsN-171" value="R" style="text;html=1;align=center;verticalAlign=middle;resizable=0;points=[];autosize=1;strokeColor=none;fillColor=none;fontSize=11;spacing=-6;fontFamily=NewsGotT;" vertex="1" parent="nh-JWcSBpbhqLz3bGZsN-175">
          <mxGeometry x="58" y="17.142857142857142" width="10" height="10" as="geometry" />
        </mxCell>
        <mxCell id="nh-JWcSBpbhqLz3bGZsN-172" value="V" style="text;html=1;align=center;verticalAlign=middle;resizable=0;points=[];autosize=1;strokeColor=none;fillColor=none;fontSize=11;spacing=-6;fontFamily=NewsGotT;" vertex="1" parent="nh-JWcSBpbhqLz3bGZsN-175">
          <mxGeometry x="58" y="49.14285714285714" width="10" height="10" as="geometry" />
        </mxCell>
        <mxCell id="nh-JWcSBpbhqLz3bGZsN-174" value="" style="triangle;whiteSpace=wrap;html=1;fontFamily=NewsGotT;movable=1;resizable=1;rotatable=1;deletable=1;editable=1;locked=0;connectable=1;points=[];" vertex="1" parent="nh-JWcSBpbhqLz3bGZsN-175">
          <mxGeometry y="13.714285714285714" width="7.5" height="11.428571428571427" as="geometry" />
        </mxCell>
        <mxCell id="nh-JWcSBpbhqLz3bGZsN-178" value="w_re_i" style="endArrow=classic;html=1;rounded=0;align=right;fontFamily=NewsGotT;entryX=0;entryY=0.75;entryDx=0;entryDy=0;entryPerimeter=0;" edge="1" parent="1" target="nh-JWcSBpbhqLz3bGZsN-167">
          <mxGeometry x="-1" y="5" width="50" height="50" relative="1" as="geometry">
            <mxPoint x="40" y="555" as="sourcePoint" />
            <mxPoint x="260" y="555" as="targetPoint" />
            <mxPoint x="-5" y="5" as="offset" />
            <Array as="points">
              <mxPoint x="280" y="555" />
              <mxPoint x="280" y="360" />
            </Array>
          </mxGeometry>
        </mxCell>
        <mxCell id="nh-JWcSBpbhqLz3bGZsN-179" value="" style="group" vertex="1" connectable="0" parent="1">
          <mxGeometry x="350" y="400" width="70" height="80" as="geometry" />
        </mxCell>
        <mxCell id="nh-JWcSBpbhqLz3bGZsN-180" value="&lt;font&gt;MUL&lt;/font&gt;" style="rounded=0;whiteSpace=wrap;html=1;points=[[0,0.25,0,0,0],[0,0.5,0,0,0],[0,0.75,0,0,0],[1,0.3,0,0,0],[1,0.7,0,0,0]];fontFamily=NewsGotT;" vertex="1" parent="nh-JWcSBpbhqLz3bGZsN-179">
          <mxGeometry width="70" height="80" as="geometry" />
        </mxCell>
        <mxCell id="nh-JWcSBpbhqLz3bGZsN-181" value="A" style="text;html=1;align=center;verticalAlign=middle;resizable=0;points=[];autosize=1;strokeColor=none;fillColor=none;fontSize=11;spacing=-6;fontFamily=NewsGotT;" vertex="1" parent="nh-JWcSBpbhqLz3bGZsN-179">
          <mxGeometry y="34.285714285714285" width="10" height="10" as="geometry" />
        </mxCell>
        <mxCell id="nh-JWcSBpbhqLz3bGZsN-182" value="B" style="text;html=1;align=center;verticalAlign=middle;resizable=0;points=[];autosize=1;strokeColor=none;fillColor=none;fontSize=11;spacing=-6;fontFamily=NewsGotT;" vertex="1" parent="nh-JWcSBpbhqLz3bGZsN-179">
          <mxGeometry y="53.71428571428571" width="10" height="10" as="geometry" />
        </mxCell>
        <mxCell id="nh-JWcSBpbhqLz3bGZsN-183" value="R" style="text;html=1;align=center;verticalAlign=middle;resizable=0;points=[];autosize=1;strokeColor=none;fillColor=none;fontSize=11;spacing=-6;fontFamily=NewsGotT;" vertex="1" parent="nh-JWcSBpbhqLz3bGZsN-179">
          <mxGeometry x="58" y="17.142857142857142" width="10" height="10" as="geometry" />
        </mxCell>
        <mxCell id="nh-JWcSBpbhqLz3bGZsN-184" value="V" style="text;html=1;align=center;verticalAlign=middle;resizable=0;points=[];autosize=1;strokeColor=none;fillColor=none;fontSize=11;spacing=-6;fontFamily=NewsGotT;" vertex="1" parent="nh-JWcSBpbhqLz3bGZsN-179">
          <mxGeometry x="58" y="49.14285714285714" width="10" height="10" as="geometry" />
        </mxCell>
        <mxCell id="nh-JWcSBpbhqLz3bGZsN-185" value="" style="triangle;whiteSpace=wrap;html=1;fontFamily=NewsGotT;movable=1;resizable=1;rotatable=1;deletable=1;editable=1;locked=0;connectable=1;points=[];" vertex="1" parent="nh-JWcSBpbhqLz3bGZsN-179">
          <mxGeometry y="13.714285714285714" width="7.5" height="11.428571428571427" as="geometry" />
        </mxCell>
        <mxCell id="nh-JWcSBpbhqLz3bGZsN-186" value="" style="endArrow=oval;html=1;rounded=0;exitX=0;exitY=0.25;exitDx=0;exitDy=0;exitPerimeter=0;endFill=1;startSize=3;endSize=3;" edge="1" parent="1" source="nh-JWcSBpbhqLz3bGZsN-180">
          <mxGeometry width="50" height="50" relative="1" as="geometry">
            <mxPoint x="275" y="370" as="sourcePoint" />
            <mxPoint x="325" y="320" as="targetPoint" />
            <Array as="points">
              <mxPoint x="325" y="420" />
            </Array>
          </mxGeometry>
        </mxCell>
        <mxCell id="nh-JWcSBpbhqLz3bGZsN-188" value="w_im_i" style="endArrow=classic;html=1;rounded=0;align=right;fontFamily=NewsGotT;entryX=0;entryY=0.75;entryDx=0;entryDy=0;entryPerimeter=0;edgeStyle=orthogonalEdgeStyle;" edge="1" parent="1" target="nh-JWcSBpbhqLz3bGZsN-180">
          <mxGeometry x="-1" y="5" width="50" height="50" relative="1" as="geometry">
            <mxPoint x="40" y="595" as="sourcePoint" />
            <mxPoint x="300" y="540" as="targetPoint" />
            <mxPoint x="-5" y="5" as="offset" />
            <Array as="points">
              <mxPoint x="40" y="596" />
              <mxPoint x="305" y="596" />
              <mxPoint x="305" y="460" />
            </Array>
          </mxGeometry>
        </mxCell>
        <mxCell id="nh-JWcSBpbhqLz3bGZsN-189" value="" style="group" vertex="1" connectable="0" parent="1">
          <mxGeometry x="350" y="500" width="70" height="80" as="geometry" />
        </mxCell>
        <mxCell id="nh-JWcSBpbhqLz3bGZsN-190" value="&lt;font&gt;MUL&lt;/font&gt;" style="rounded=0;whiteSpace=wrap;html=1;points=[[0,0.25,0,0,0],[0,0.5,0,0,0],[0,0.75,0,0,0],[1,0.3,0,0,0],[1,0.7,0,0,0]];fontFamily=NewsGotT;" vertex="1" parent="nh-JWcSBpbhqLz3bGZsN-189">
          <mxGeometry width="70" height="80" as="geometry" />
        </mxCell>
        <mxCell id="nh-JWcSBpbhqLz3bGZsN-191" value="A" style="text;html=1;align=center;verticalAlign=middle;resizable=0;points=[];autosize=1;strokeColor=none;fillColor=none;fontSize=11;spacing=-6;fontFamily=NewsGotT;" vertex="1" parent="nh-JWcSBpbhqLz3bGZsN-189">
          <mxGeometry y="34.285714285714285" width="10" height="10" as="geometry" />
        </mxCell>
        <mxCell id="nh-JWcSBpbhqLz3bGZsN-192" value="B" style="text;html=1;align=center;verticalAlign=middle;resizable=0;points=[];autosize=1;strokeColor=none;fillColor=none;fontSize=11;spacing=-6;fontFamily=NewsGotT;" vertex="1" parent="nh-JWcSBpbhqLz3bGZsN-189">
          <mxGeometry y="53.71428571428571" width="10" height="10" as="geometry" />
        </mxCell>
        <mxCell id="nh-JWcSBpbhqLz3bGZsN-193" value="R" style="text;html=1;align=center;verticalAlign=middle;resizable=0;points=[];autosize=1;strokeColor=none;fillColor=none;fontSize=11;spacing=-6;fontFamily=NewsGotT;" vertex="1" parent="nh-JWcSBpbhqLz3bGZsN-189">
          <mxGeometry x="58" y="17.142857142857142" width="10" height="10" as="geometry" />
        </mxCell>
        <mxCell id="nh-JWcSBpbhqLz3bGZsN-194" value="V" style="text;html=1;align=center;verticalAlign=middle;resizable=0;points=[];autosize=1;strokeColor=none;fillColor=none;fontSize=11;spacing=-6;fontFamily=NewsGotT;" vertex="1" parent="nh-JWcSBpbhqLz3bGZsN-189">
          <mxGeometry x="58" y="49.14285714285714" width="10" height="10" as="geometry" />
        </mxCell>
        <mxCell id="nh-JWcSBpbhqLz3bGZsN-195" value="" style="triangle;whiteSpace=wrap;html=1;fontFamily=NewsGotT;movable=1;resizable=1;rotatable=1;deletable=1;editable=1;locked=0;connectable=1;points=[];" vertex="1" parent="nh-JWcSBpbhqLz3bGZsN-189">
          <mxGeometry y="13.714285714285714" width="7.5" height="11.428571428571427" as="geometry" />
        </mxCell>
        <mxCell id="nh-JWcSBpbhqLz3bGZsN-196" value="" style="group" vertex="1" connectable="0" parent="1">
          <mxGeometry x="350" y="600" width="70" height="80" as="geometry" />
        </mxCell>
        <mxCell id="nh-JWcSBpbhqLz3bGZsN-197" value="&lt;font&gt;MUL&lt;/font&gt;" style="rounded=0;whiteSpace=wrap;html=1;points=[[0,0.25,0,0,0],[0,0.5,0,0,0],[0,0.75,0,0,0],[1,0.3,0,0,0],[1,0.7,0,0,0]];fontFamily=NewsGotT;" vertex="1" parent="nh-JWcSBpbhqLz3bGZsN-196">
          <mxGeometry width="70" height="80" as="geometry" />
        </mxCell>
        <mxCell id="nh-JWcSBpbhqLz3bGZsN-198" value="A" style="text;html=1;align=center;verticalAlign=middle;resizable=0;points=[];autosize=1;strokeColor=none;fillColor=none;fontSize=11;spacing=-6;fontFamily=NewsGotT;" vertex="1" parent="nh-JWcSBpbhqLz3bGZsN-196">
          <mxGeometry y="34.285714285714285" width="10" height="10" as="geometry" />
        </mxCell>
        <mxCell id="nh-JWcSBpbhqLz3bGZsN-199" value="B" style="text;html=1;align=center;verticalAlign=middle;resizable=0;points=[];autosize=1;strokeColor=none;fillColor=none;fontSize=11;spacing=-6;fontFamily=NewsGotT;" vertex="1" parent="nh-JWcSBpbhqLz3bGZsN-196">
          <mxGeometry y="53.71428571428571" width="10" height="10" as="geometry" />
        </mxCell>
        <mxCell id="nh-JWcSBpbhqLz3bGZsN-200" value="R" style="text;html=1;align=center;verticalAlign=middle;resizable=0;points=[];autosize=1;strokeColor=none;fillColor=none;fontSize=11;spacing=-6;fontFamily=NewsGotT;" vertex="1" parent="nh-JWcSBpbhqLz3bGZsN-196">
          <mxGeometry x="58" y="17.142857142857142" width="10" height="10" as="geometry" />
        </mxCell>
        <mxCell id="nh-JWcSBpbhqLz3bGZsN-201" value="V" style="text;html=1;align=center;verticalAlign=middle;resizable=0;points=[];autosize=1;strokeColor=none;fillColor=none;fontSize=11;spacing=-6;fontFamily=NewsGotT;" vertex="1" parent="nh-JWcSBpbhqLz3bGZsN-196">
          <mxGeometry x="58" y="49.14285714285714" width="10" height="10" as="geometry" />
        </mxCell>
        <mxCell id="nh-JWcSBpbhqLz3bGZsN-202" value="" style="triangle;whiteSpace=wrap;html=1;fontFamily=NewsGotT;movable=1;resizable=1;rotatable=1;deletable=1;editable=1;locked=0;connectable=1;points=[];" vertex="1" parent="nh-JWcSBpbhqLz3bGZsN-196">
          <mxGeometry y="13.714285714285714" width="7.5" height="11.428571428571427" as="geometry" />
        </mxCell>
        <mxCell id="nh-JWcSBpbhqLz3bGZsN-205" value="" style="endArrow=oval;html=1;rounded=0;exitX=0;exitY=0.25;exitDx=0;exitDy=0;exitPerimeter=0;endFill=1;startSize=3;endSize=3;" edge="1" parent="1" source="nh-JWcSBpbhqLz3bGZsN-190">
          <mxGeometry width="50" height="50" relative="1" as="geometry">
            <mxPoint x="345" y="520" as="sourcePoint" />
            <mxPoint x="325" y="420" as="targetPoint" />
            <Array as="points">
              <mxPoint x="325" y="520" />
            </Array>
          </mxGeometry>
        </mxCell>
        <mxCell id="nh-JWcSBpbhqLz3bGZsN-206" value="" style="endArrow=oval;html=1;rounded=0;exitX=0;exitY=0.25;exitDx=0;exitDy=0;exitPerimeter=0;endFill=1;startSize=3;endSize=3;" edge="1" parent="1" source="nh-JWcSBpbhqLz3bGZsN-197">
          <mxGeometry width="50" height="50" relative="1" as="geometry">
            <mxPoint x="345" y="620" as="sourcePoint" />
            <mxPoint x="325" y="520" as="targetPoint" />
            <Array as="points">
              <mxPoint x="325" y="620" />
            </Array>
          </mxGeometry>
        </mxCell>
        <mxCell id="nh-JWcSBpbhqLz3bGZsN-245" value="" style="endArrow=classic;html=1;rounded=0;strokeColor=default;align=center;verticalAlign=middle;fontFamily=Helvetica;fontSize=11;fontColor=default;labelBackgroundColor=default;edgeStyle=none;startSize=3;entryX=0;entryY=0.75;entryDx=0;entryDy=0;entryPerimeter=0;endFill=1;startArrow=oval;startFill=1;" edge="1" parent="1" target="nh-JWcSBpbhqLz3bGZsN-197">
          <mxGeometry width="50" height="50" relative="1" as="geometry">
            <mxPoint x="280" y="555" as="sourcePoint" />
            <mxPoint x="540" y="435" as="targetPoint" />
            <Array as="points">
              <mxPoint x="280" y="660" />
            </Array>
          </mxGeometry>
        </mxCell>
        <mxCell id="nh-JWcSBpbhqLz3bGZsN-246" value="" style="endArrow=classic;html=1;rounded=0;strokeColor=default;align=center;verticalAlign=middle;fontFamily=Helvetica;fontSize=11;fontColor=default;labelBackgroundColor=default;edgeStyle=none;startSize=3;entryX=0;entryY=0.75;entryDx=0;entryDy=0;entryPerimeter=0;endFill=1;startArrow=oval;startFill=1;" edge="1" parent="1" target="nh-JWcSBpbhqLz3bGZsN-190">
          <mxGeometry width="50" height="50" relative="1" as="geometry">
            <mxPoint x="305" y="560" as="sourcePoint" />
            <mxPoint x="355" y="665" as="targetPoint" />
            <Array as="points" />
          </mxGeometry>
        </mxCell>
        <mxCell id="nh-JWcSBpbhqLz3bGZsN-247" style="edgeStyle=orthogonalEdgeStyle;shape=connector;rounded=0;orthogonalLoop=1;jettySize=auto;html=1;exitX=1;exitY=0.25;exitDx=0;exitDy=0;entryX=0;entryY=0.5;entryDx=0;entryDy=0;entryPerimeter=0;strokeColor=default;align=center;verticalAlign=middle;fontFamily=Helvetica;fontSize=11;fontColor=default;labelBackgroundColor=default;startArrow=none;startFill=0;startSize=3;endArrow=classic;endFill=1;" edge="1" parent="1" target="nh-JWcSBpbhqLz3bGZsN-180">
          <mxGeometry relative="1" as="geometry">
            <mxPoint x="179.99999999999977" y="460" as="sourcePoint" />
            <Array as="points">
              <mxPoint x="240" y="460" />
              <mxPoint x="240" y="440" />
            </Array>
          </mxGeometry>
        </mxCell>
        <mxCell id="nh-JWcSBpbhqLz3bGZsN-248" value="" style="endArrow=classic;html=1;rounded=0;strokeColor=default;align=center;verticalAlign=middle;fontFamily=Helvetica;fontSize=11;fontColor=default;labelBackgroundColor=default;edgeStyle=orthogonalEdgeStyle;startSize=3;entryX=0;entryY=0.5;entryDx=0;entryDy=0;entryPerimeter=0;endFill=1;startArrow=oval;startFill=1;" edge="1" parent="1" target="nh-JWcSBpbhqLz3bGZsN-190">
          <mxGeometry width="50" height="50" relative="1" as="geometry">
            <mxPoint x="260" y="340" as="sourcePoint" />
            <mxPoint x="330" y="445" as="targetPoint" />
            <Array as="points">
              <mxPoint x="260" y="540" />
            </Array>
          </mxGeometry>
        </mxCell>
        <mxCell id="nh-JWcSBpbhqLz3bGZsN-249" value="" style="endArrow=classic;html=1;rounded=0;strokeColor=default;align=center;verticalAlign=middle;fontFamily=Helvetica;fontSize=11;fontColor=default;labelBackgroundColor=default;edgeStyle=none;startSize=3;entryX=0;entryY=0.5;entryDx=0;entryDy=0;entryPerimeter=0;endFill=1;startArrow=oval;startFill=1;" edge="1" parent="1" target="nh-JWcSBpbhqLz3bGZsN-197">
          <mxGeometry width="50" height="50" relative="1" as="geometry">
            <mxPoint x="240" y="460" as="sourcePoint" />
            <mxPoint x="360" y="640" as="targetPoint" />
            <Array as="points">
              <mxPoint x="240" y="640" />
            </Array>
          </mxGeometry>
        </mxCell>
        <mxCell id="nh-JWcSBpbhqLz3bGZsN-289" value="" style="endArrow=none;html=1;rounded=0;strokeColor=default;align=center;verticalAlign=middle;fontFamily=Helvetica;fontSize=11;fontColor=default;labelBackgroundColor=default;edgeStyle=orthogonalEdgeStyle;startSize=3;entryX=0;entryY=0.5;entryDx=0;entryDy=0;startArrow=oval;startFill=1;" edge="1" parent="1" target="nh-JWcSBpbhqLz3bGZsN-332">
          <mxGeometry width="50" height="50" relative="1" as="geometry">
            <mxPoint x="325" y="50" as="sourcePoint" />
            <mxPoint x="530" y="340" as="targetPoint" />
            <Array as="points">
              <mxPoint x="525" y="50" />
              <mxPoint x="525" y="340" />
            </Array>
          </mxGeometry>
        </mxCell>
        <mxCell id="nh-JWcSBpbhqLz3bGZsN-297" value="" style="group" vertex="1" connectable="0" parent="1">
          <mxGeometry x="120" y="80" width="60" height="80" as="geometry" />
        </mxCell>
        <mxCell id="nh-JWcSBpbhqLz3bGZsN-1" value="" style="whiteSpace=wrap;html=1;verticalAlign=bottom;movable=1;resizable=1;rotatable=1;deletable=1;editable=1;locked=0;connectable=1;container=0;" vertex="1" parent="nh-JWcSBpbhqLz3bGZsN-297">
          <mxGeometry width="60" height="80" as="geometry" />
        </mxCell>
        <mxCell id="nh-JWcSBpbhqLz3bGZsN-2" value="D" style="text;html=1;align=center;verticalAlign=middle;resizable=1;points=[];autosize=1;strokeColor=none;fillColor=none;fontFamily=NewsGotT;spacing=-6;movable=1;rotatable=1;deletable=1;editable=1;locked=0;connectable=1;container=0;" vertex="1" parent="nh-JWcSBpbhqLz3bGZsN-297">
          <mxGeometry x="1.875" y="10" width="10" height="15" as="geometry" />
        </mxCell>
        <mxCell id="nh-JWcSBpbhqLz3bGZsN-3" value="" style="triangle;whiteSpace=wrap;html=1;fontFamily=NewsGotT;movable=1;resizable=1;rotatable=1;deletable=1;editable=1;locked=0;connectable=1;container=0;" vertex="1" parent="nh-JWcSBpbhqLz3bGZsN-297">
          <mxGeometry y="35" width="7.5" height="10" as="geometry" />
        </mxCell>
        <mxCell id="nh-JWcSBpbhqLz3bGZsN-4" value="CLR" style="text;html=1;align=center;verticalAlign=middle;resizable=1;points=[];autosize=1;strokeColor=none;fillColor=none;fontFamily=NewsGotT;spacing=-6;movable=1;rotatable=1;deletable=1;editable=1;locked=0;connectable=1;container=0;" vertex="1" parent="nh-JWcSBpbhqLz3bGZsN-297">
          <mxGeometry y="50" width="25" height="15" as="geometry" />
        </mxCell>
        <mxCell id="nh-JWcSBpbhqLz3bGZsN-5" value="Q" style="text;html=1;align=center;verticalAlign=middle;resizable=1;points=[];autosize=1;strokeColor=none;fillColor=none;fontFamily=NewsGotT;spacing=-6;movable=1;rotatable=1;deletable=1;editable=1;locked=0;connectable=1;container=0;" vertex="1" parent="nh-JWcSBpbhqLz3bGZsN-297">
          <mxGeometry x="47" y="10" width="10" height="15" as="geometry" />
        </mxCell>
        <mxCell id="nh-JWcSBpbhqLz3bGZsN-293" value="" style="endArrow=none;rounded=0;strokeWidth=1;labelBorderColor=none;fontColor=default;labelBackgroundColor=default;html=1;endSize=0;startSize=0;movable=1;resizable=1;rotatable=1;deletable=1;editable=1;locked=0;connectable=1;exitX=0.911;exitY=0.262;exitDx=0;exitDy=0;exitPerimeter=0;" edge="1" parent="nh-JWcSBpbhqLz3bGZsN-297">
          <mxGeometry width="50" height="50" relative="1" as="geometry">
            <mxPoint x="22.774999999999864" y="53.92999999999998" as="sourcePoint" />
            <mxPoint x="4.3799999999999955" y="54" as="targetPoint" />
          </mxGeometry>
        </mxCell>
        <mxCell id="nh-JWcSBpbhqLz3bGZsN-8" value="Q" style="text;html=1;align=center;verticalAlign=middle;resizable=1;points=[];autosize=1;strokeColor=none;fillColor=none;fontFamily=NewsGotT;spacing=-6;movable=1;rotatable=1;deletable=1;editable=1;locked=0;connectable=1;container=0;" vertex="1" parent="nh-JWcSBpbhqLz3bGZsN-297">
          <mxGeometry x="47" y="50" width="10" height="15" as="geometry" />
        </mxCell>
        <mxCell id="nh-JWcSBpbhqLz3bGZsN-9" value="" style="endArrow=none;rounded=0;strokeWidth=1;labelBorderColor=none;fontColor=default;labelBackgroundColor=default;html=1;endSize=0;startSize=0;movable=1;resizable=1;rotatable=1;deletable=1;editable=1;locked=0;connectable=1;" edge="1" parent="nh-JWcSBpbhqLz3bGZsN-297">
          <mxGeometry width="50" height="50" relative="1" as="geometry">
            <mxPoint x="56.5" y="54" as="sourcePoint" />
            <mxPoint x="49" y="54" as="targetPoint" />
          </mxGeometry>
        </mxCell>
        <mxCell id="nh-JWcSBpbhqLz3bGZsN-298" value="" style="group" vertex="1" connectable="0" parent="1">
          <mxGeometry x="120" y="200" width="60" height="80" as="geometry" />
        </mxCell>
        <mxCell id="nh-JWcSBpbhqLz3bGZsN-299" value="" style="whiteSpace=wrap;html=1;verticalAlign=bottom;movable=1;resizable=1;rotatable=1;deletable=1;editable=1;locked=0;connectable=1;container=0;" vertex="1" parent="nh-JWcSBpbhqLz3bGZsN-298">
          <mxGeometry width="60" height="80" as="geometry" />
        </mxCell>
        <mxCell id="nh-JWcSBpbhqLz3bGZsN-300" value="D" style="text;html=1;align=center;verticalAlign=middle;resizable=1;points=[];autosize=1;strokeColor=none;fillColor=none;fontFamily=NewsGotT;spacing=-6;movable=1;rotatable=1;deletable=1;editable=1;locked=0;connectable=1;container=0;" vertex="1" parent="nh-JWcSBpbhqLz3bGZsN-298">
          <mxGeometry x="1.875" y="10" width="10" height="15" as="geometry" />
        </mxCell>
        <mxCell id="nh-JWcSBpbhqLz3bGZsN-301" value="" style="triangle;whiteSpace=wrap;html=1;fontFamily=NewsGotT;movable=1;resizable=1;rotatable=1;deletable=1;editable=1;locked=0;connectable=1;container=0;" vertex="1" parent="nh-JWcSBpbhqLz3bGZsN-298">
          <mxGeometry y="35" width="7.5" height="10" as="geometry" />
        </mxCell>
        <mxCell id="nh-JWcSBpbhqLz3bGZsN-302" value="CLR" style="text;html=1;align=center;verticalAlign=middle;resizable=1;points=[];autosize=1;strokeColor=none;fillColor=none;fontFamily=NewsGotT;spacing=-6;movable=1;rotatable=1;deletable=1;editable=1;locked=0;connectable=1;container=0;" vertex="1" parent="nh-JWcSBpbhqLz3bGZsN-298">
          <mxGeometry y="50" width="25" height="15" as="geometry" />
        </mxCell>
        <mxCell id="nh-JWcSBpbhqLz3bGZsN-303" value="Q" style="text;html=1;align=center;verticalAlign=middle;resizable=1;points=[];autosize=1;strokeColor=none;fillColor=none;fontFamily=NewsGotT;spacing=-6;movable=1;rotatable=1;deletable=1;editable=1;locked=0;connectable=1;container=0;" vertex="1" parent="nh-JWcSBpbhqLz3bGZsN-298">
          <mxGeometry x="47" y="10" width="10" height="15" as="geometry" />
        </mxCell>
        <mxCell id="nh-JWcSBpbhqLz3bGZsN-304" value="" style="endArrow=none;rounded=0;strokeWidth=1;labelBorderColor=none;fontColor=default;labelBackgroundColor=default;html=1;endSize=0;startSize=0;movable=1;resizable=1;rotatable=1;deletable=1;editable=1;locked=0;connectable=1;exitX=0.911;exitY=0.262;exitDx=0;exitDy=0;exitPerimeter=0;" edge="1" parent="nh-JWcSBpbhqLz3bGZsN-298">
          <mxGeometry width="50" height="50" relative="1" as="geometry">
            <mxPoint x="22.774999999999864" y="53.92999999999998" as="sourcePoint" />
            <mxPoint x="4.3799999999999955" y="54" as="targetPoint" />
          </mxGeometry>
        </mxCell>
        <mxCell id="nh-JWcSBpbhqLz3bGZsN-305" value="Q" style="text;html=1;align=center;verticalAlign=middle;resizable=1;points=[];autosize=1;strokeColor=none;fillColor=none;fontFamily=NewsGotT;spacing=-6;movable=1;rotatable=1;deletable=1;editable=1;locked=0;connectable=1;container=0;" vertex="1" parent="nh-JWcSBpbhqLz3bGZsN-298">
          <mxGeometry x="47" y="50" width="10" height="15" as="geometry" />
        </mxCell>
        <mxCell id="nh-JWcSBpbhqLz3bGZsN-306" value="" style="endArrow=none;rounded=0;strokeWidth=1;labelBorderColor=none;fontColor=default;labelBackgroundColor=default;html=1;endSize=0;startSize=0;movable=1;resizable=1;rotatable=1;deletable=1;editable=1;locked=0;connectable=1;" edge="1" parent="nh-JWcSBpbhqLz3bGZsN-298">
          <mxGeometry width="50" height="50" relative="1" as="geometry">
            <mxPoint x="56.5" y="54" as="sourcePoint" />
            <mxPoint x="49" y="54" as="targetPoint" />
          </mxGeometry>
        </mxCell>
        <mxCell id="nh-JWcSBpbhqLz3bGZsN-307" value="" style="group" vertex="1" connectable="0" parent="1">
          <mxGeometry x="120" y="320" width="60" height="80" as="geometry" />
        </mxCell>
        <mxCell id="nh-JWcSBpbhqLz3bGZsN-308" value="" style="whiteSpace=wrap;html=1;verticalAlign=bottom;movable=1;resizable=1;rotatable=1;deletable=1;editable=1;locked=0;connectable=1;container=0;" vertex="1" parent="nh-JWcSBpbhqLz3bGZsN-307">
          <mxGeometry width="60" height="80" as="geometry" />
        </mxCell>
        <mxCell id="nh-JWcSBpbhqLz3bGZsN-309" value="D" style="text;html=1;align=center;verticalAlign=middle;resizable=1;points=[];autosize=1;strokeColor=none;fillColor=none;fontFamily=NewsGotT;spacing=-6;movable=1;rotatable=1;deletable=1;editable=1;locked=0;connectable=1;container=0;" vertex="1" parent="nh-JWcSBpbhqLz3bGZsN-307">
          <mxGeometry x="1.875" y="10" width="10" height="15" as="geometry" />
        </mxCell>
        <mxCell id="nh-JWcSBpbhqLz3bGZsN-310" value="" style="triangle;whiteSpace=wrap;html=1;fontFamily=NewsGotT;movable=1;resizable=1;rotatable=1;deletable=1;editable=1;locked=0;connectable=1;container=0;" vertex="1" parent="nh-JWcSBpbhqLz3bGZsN-307">
          <mxGeometry y="35" width="7.5" height="10" as="geometry" />
        </mxCell>
        <mxCell id="nh-JWcSBpbhqLz3bGZsN-311" value="CLR" style="text;html=1;align=center;verticalAlign=middle;resizable=1;points=[];autosize=1;strokeColor=none;fillColor=none;fontFamily=NewsGotT;spacing=-6;movable=1;rotatable=1;deletable=1;editable=1;locked=0;connectable=1;container=0;" vertex="1" parent="nh-JWcSBpbhqLz3bGZsN-307">
          <mxGeometry y="50" width="25" height="15" as="geometry" />
        </mxCell>
        <mxCell id="nh-JWcSBpbhqLz3bGZsN-312" value="Q" style="text;html=1;align=center;verticalAlign=middle;resizable=1;points=[];autosize=1;strokeColor=none;fillColor=none;fontFamily=NewsGotT;spacing=-6;movable=1;rotatable=1;deletable=1;editable=1;locked=0;connectable=1;container=0;" vertex="1" parent="nh-JWcSBpbhqLz3bGZsN-307">
          <mxGeometry x="47" y="10" width="10" height="15" as="geometry" />
        </mxCell>
        <mxCell id="nh-JWcSBpbhqLz3bGZsN-313" value="" style="endArrow=none;rounded=0;strokeWidth=1;labelBorderColor=none;fontColor=default;labelBackgroundColor=default;html=1;endSize=0;startSize=0;movable=1;resizable=1;rotatable=1;deletable=1;editable=1;locked=0;connectable=1;exitX=0.911;exitY=0.262;exitDx=0;exitDy=0;exitPerimeter=0;" edge="1" parent="nh-JWcSBpbhqLz3bGZsN-307">
          <mxGeometry width="50" height="50" relative="1" as="geometry">
            <mxPoint x="22.774999999999864" y="53.92999999999998" as="sourcePoint" />
            <mxPoint x="4.3799999999999955" y="54" as="targetPoint" />
          </mxGeometry>
        </mxCell>
        <mxCell id="nh-JWcSBpbhqLz3bGZsN-314" value="Q" style="text;html=1;align=center;verticalAlign=middle;resizable=1;points=[];autosize=1;strokeColor=none;fillColor=none;fontFamily=NewsGotT;spacing=-6;movable=1;rotatable=1;deletable=1;editable=1;locked=0;connectable=1;container=0;" vertex="1" parent="nh-JWcSBpbhqLz3bGZsN-307">
          <mxGeometry x="47" y="50" width="10" height="15" as="geometry" />
        </mxCell>
        <mxCell id="nh-JWcSBpbhqLz3bGZsN-315" value="" style="endArrow=none;rounded=0;strokeWidth=1;labelBorderColor=none;fontColor=default;labelBackgroundColor=default;html=1;endSize=0;startSize=0;movable=1;resizable=1;rotatable=1;deletable=1;editable=1;locked=0;connectable=1;" edge="1" parent="nh-JWcSBpbhqLz3bGZsN-307">
          <mxGeometry width="50" height="50" relative="1" as="geometry">
            <mxPoint x="56.5" y="54" as="sourcePoint" />
            <mxPoint x="49" y="54" as="targetPoint" />
          </mxGeometry>
        </mxCell>
        <mxCell id="nh-JWcSBpbhqLz3bGZsN-316" value="" style="group" vertex="1" connectable="0" parent="1">
          <mxGeometry x="120" y="440" width="60" height="80" as="geometry" />
        </mxCell>
        <mxCell id="nh-JWcSBpbhqLz3bGZsN-317" value="" style="whiteSpace=wrap;html=1;verticalAlign=bottom;movable=1;resizable=1;rotatable=1;deletable=1;editable=1;locked=0;connectable=1;container=0;" vertex="1" parent="nh-JWcSBpbhqLz3bGZsN-316">
          <mxGeometry width="60" height="80" as="geometry" />
        </mxCell>
        <mxCell id="nh-JWcSBpbhqLz3bGZsN-318" value="D" style="text;html=1;align=center;verticalAlign=middle;resizable=1;points=[];autosize=1;strokeColor=none;fillColor=none;fontFamily=NewsGotT;spacing=-6;movable=1;rotatable=1;deletable=1;editable=1;locked=0;connectable=1;container=0;" vertex="1" parent="nh-JWcSBpbhqLz3bGZsN-316">
          <mxGeometry x="1.875" y="10" width="10" height="15" as="geometry" />
        </mxCell>
        <mxCell id="nh-JWcSBpbhqLz3bGZsN-319" value="" style="triangle;whiteSpace=wrap;html=1;fontFamily=NewsGotT;movable=1;resizable=1;rotatable=1;deletable=1;editable=1;locked=0;connectable=1;container=0;" vertex="1" parent="nh-JWcSBpbhqLz3bGZsN-316">
          <mxGeometry y="35" width="7.5" height="10" as="geometry" />
        </mxCell>
        <mxCell id="nh-JWcSBpbhqLz3bGZsN-320" value="CLR" style="text;html=1;align=center;verticalAlign=middle;resizable=1;points=[];autosize=1;strokeColor=none;fillColor=none;fontFamily=NewsGotT;spacing=-6;movable=1;rotatable=1;deletable=1;editable=1;locked=0;connectable=1;container=0;" vertex="1" parent="nh-JWcSBpbhqLz3bGZsN-316">
          <mxGeometry y="50" width="25" height="15" as="geometry" />
        </mxCell>
        <mxCell id="nh-JWcSBpbhqLz3bGZsN-321" value="Q" style="text;html=1;align=center;verticalAlign=middle;resizable=1;points=[];autosize=1;strokeColor=none;fillColor=none;fontFamily=NewsGotT;spacing=-6;movable=1;rotatable=1;deletable=1;editable=1;locked=0;connectable=1;container=0;" vertex="1" parent="nh-JWcSBpbhqLz3bGZsN-316">
          <mxGeometry x="47" y="10" width="10" height="15" as="geometry" />
        </mxCell>
        <mxCell id="nh-JWcSBpbhqLz3bGZsN-322" value="" style="endArrow=none;rounded=0;strokeWidth=1;labelBorderColor=none;fontColor=default;labelBackgroundColor=default;html=1;endSize=0;startSize=0;movable=1;resizable=1;rotatable=1;deletable=1;editable=1;locked=0;connectable=1;exitX=0.911;exitY=0.262;exitDx=0;exitDy=0;exitPerimeter=0;" edge="1" parent="nh-JWcSBpbhqLz3bGZsN-316">
          <mxGeometry width="50" height="50" relative="1" as="geometry">
            <mxPoint x="22.774999999999864" y="53.92999999999998" as="sourcePoint" />
            <mxPoint x="4.3799999999999955" y="54" as="targetPoint" />
          </mxGeometry>
        </mxCell>
        <mxCell id="nh-JWcSBpbhqLz3bGZsN-323" value="Q" style="text;html=1;align=center;verticalAlign=middle;resizable=1;points=[];autosize=1;strokeColor=none;fillColor=none;fontFamily=NewsGotT;spacing=-6;movable=1;rotatable=1;deletable=1;editable=1;locked=0;connectable=1;container=0;" vertex="1" parent="nh-JWcSBpbhqLz3bGZsN-316">
          <mxGeometry x="47" y="50" width="10" height="15" as="geometry" />
        </mxCell>
        <mxCell id="nh-JWcSBpbhqLz3bGZsN-324" value="" style="endArrow=none;rounded=0;strokeWidth=1;labelBorderColor=none;fontColor=default;labelBackgroundColor=default;html=1;endSize=0;startSize=0;movable=1;resizable=1;rotatable=1;deletable=1;editable=1;locked=0;connectable=1;" edge="1" parent="nh-JWcSBpbhqLz3bGZsN-316">
          <mxGeometry width="50" height="50" relative="1" as="geometry">
            <mxPoint x="56.5" y="54" as="sourcePoint" />
            <mxPoint x="49" y="54" as="targetPoint" />
          </mxGeometry>
        </mxCell>
        <mxCell id="nh-JWcSBpbhqLz3bGZsN-331" value="" style="group" vertex="1" connectable="0" parent="1">
          <mxGeometry x="540" y="300" width="60" height="80" as="geometry" />
        </mxCell>
        <mxCell id="nh-JWcSBpbhqLz3bGZsN-332" value="" style="whiteSpace=wrap;html=1;verticalAlign=bottom;movable=1;resizable=1;rotatable=1;deletable=1;editable=1;locked=0;connectable=1;container=0;" vertex="1" parent="nh-JWcSBpbhqLz3bGZsN-331">
          <mxGeometry width="60" height="80" as="geometry" />
        </mxCell>
        <mxCell id="nh-JWcSBpbhqLz3bGZsN-333" value="D" style="text;html=1;align=center;verticalAlign=middle;resizable=1;points=[];autosize=1;strokeColor=none;fillColor=none;fontFamily=NewsGotT;spacing=-6;movable=1;rotatable=1;deletable=1;editable=1;locked=0;connectable=1;container=0;" vertex="1" parent="nh-JWcSBpbhqLz3bGZsN-331">
          <mxGeometry x="1.875" y="10" width="10" height="15" as="geometry" />
        </mxCell>
        <mxCell id="nh-JWcSBpbhqLz3bGZsN-334" value="" style="triangle;whiteSpace=wrap;html=1;fontFamily=NewsGotT;movable=1;resizable=1;rotatable=1;deletable=1;editable=1;locked=0;connectable=1;container=0;" vertex="1" parent="nh-JWcSBpbhqLz3bGZsN-331">
          <mxGeometry y="35" width="7.5" height="10" as="geometry" />
        </mxCell>
        <mxCell id="nh-JWcSBpbhqLz3bGZsN-335" value="CLR" style="text;html=1;align=center;verticalAlign=middle;resizable=1;points=[];autosize=1;strokeColor=none;fillColor=none;fontFamily=NewsGotT;spacing=-6;movable=1;rotatable=1;deletable=1;editable=1;locked=0;connectable=1;container=0;" vertex="1" parent="nh-JWcSBpbhqLz3bGZsN-331">
          <mxGeometry y="50" width="25" height="15" as="geometry" />
        </mxCell>
        <mxCell id="nh-JWcSBpbhqLz3bGZsN-336" value="Q" style="text;html=1;align=center;verticalAlign=middle;resizable=1;points=[];autosize=1;strokeColor=none;fillColor=none;fontFamily=NewsGotT;spacing=-6;movable=1;rotatable=1;deletable=1;editable=1;locked=0;connectable=1;container=0;" vertex="1" parent="nh-JWcSBpbhqLz3bGZsN-331">
          <mxGeometry x="47" y="10" width="10" height="15" as="geometry" />
        </mxCell>
        <mxCell id="nh-JWcSBpbhqLz3bGZsN-337" value="" style="endArrow=none;rounded=0;strokeWidth=1;labelBorderColor=none;fontColor=default;labelBackgroundColor=default;html=1;endSize=0;startSize=0;movable=1;resizable=1;rotatable=1;deletable=1;editable=1;locked=0;connectable=1;exitX=0.911;exitY=0.262;exitDx=0;exitDy=0;exitPerimeter=0;" edge="1" parent="nh-JWcSBpbhqLz3bGZsN-331">
          <mxGeometry width="50" height="50" relative="1" as="geometry">
            <mxPoint x="22.774999999999864" y="53.92999999999998" as="sourcePoint" />
            <mxPoint x="4.3799999999999955" y="54" as="targetPoint" />
          </mxGeometry>
        </mxCell>
        <mxCell id="nh-JWcSBpbhqLz3bGZsN-338" value="Q" style="text;html=1;align=center;verticalAlign=middle;resizable=1;points=[];autosize=1;strokeColor=none;fillColor=none;fontFamily=NewsGotT;spacing=-6;movable=1;rotatable=1;deletable=1;editable=1;locked=0;connectable=1;container=0;" vertex="1" parent="nh-JWcSBpbhqLz3bGZsN-331">
          <mxGeometry x="47" y="50" width="10" height="15" as="geometry" />
        </mxCell>
        <mxCell id="nh-JWcSBpbhqLz3bGZsN-339" value="" style="endArrow=none;rounded=0;strokeWidth=1;labelBorderColor=none;fontColor=default;labelBackgroundColor=default;html=1;endSize=0;startSize=0;movable=1;resizable=1;rotatable=1;deletable=1;editable=1;locked=0;connectable=1;" edge="1" parent="nh-JWcSBpbhqLz3bGZsN-331">
          <mxGeometry width="50" height="50" relative="1" as="geometry">
            <mxPoint x="56.5" y="54" as="sourcePoint" />
            <mxPoint x="49" y="54" as="targetPoint" />
          </mxGeometry>
        </mxCell>
        <mxCell id="nh-JWcSBpbhqLz3bGZsN-340" value="" style="group" vertex="1" connectable="0" parent="1">
          <mxGeometry x="540" y="400" width="60" height="80" as="geometry" />
        </mxCell>
        <mxCell id="nh-JWcSBpbhqLz3bGZsN-341" value="" style="whiteSpace=wrap;html=1;verticalAlign=bottom;movable=1;resizable=1;rotatable=1;deletable=1;editable=1;locked=0;connectable=1;container=0;" vertex="1" parent="nh-JWcSBpbhqLz3bGZsN-340">
          <mxGeometry width="60" height="80" as="geometry" />
        </mxCell>
        <mxCell id="nh-JWcSBpbhqLz3bGZsN-342" value="D" style="text;html=1;align=center;verticalAlign=middle;resizable=1;points=[];autosize=1;strokeColor=none;fillColor=none;fontFamily=NewsGotT;spacing=-6;movable=1;rotatable=1;deletable=1;editable=1;locked=0;connectable=1;container=0;" vertex="1" parent="nh-JWcSBpbhqLz3bGZsN-340">
          <mxGeometry x="1.875" y="10" width="10" height="15" as="geometry" />
        </mxCell>
        <mxCell id="nh-JWcSBpbhqLz3bGZsN-343" value="" style="triangle;whiteSpace=wrap;html=1;fontFamily=NewsGotT;movable=1;resizable=1;rotatable=1;deletable=1;editable=1;locked=0;connectable=1;container=0;" vertex="1" parent="nh-JWcSBpbhqLz3bGZsN-340">
          <mxGeometry y="35" width="7.5" height="10" as="geometry" />
        </mxCell>
        <mxCell id="nh-JWcSBpbhqLz3bGZsN-344" value="CLR" style="text;html=1;align=center;verticalAlign=middle;resizable=1;points=[];autosize=1;strokeColor=none;fillColor=none;fontFamily=NewsGotT;spacing=-6;movable=1;rotatable=1;deletable=1;editable=1;locked=0;connectable=1;container=0;" vertex="1" parent="nh-JWcSBpbhqLz3bGZsN-340">
          <mxGeometry y="50" width="25" height="15" as="geometry" />
        </mxCell>
        <mxCell id="nh-JWcSBpbhqLz3bGZsN-345" value="Q" style="text;html=1;align=center;verticalAlign=middle;resizable=1;points=[];autosize=1;strokeColor=none;fillColor=none;fontFamily=NewsGotT;spacing=-6;movable=1;rotatable=1;deletable=1;editable=1;locked=0;connectable=1;container=0;" vertex="1" parent="nh-JWcSBpbhqLz3bGZsN-340">
          <mxGeometry x="47" y="10" width="10" height="15" as="geometry" />
        </mxCell>
        <mxCell id="nh-JWcSBpbhqLz3bGZsN-346" value="" style="endArrow=none;rounded=0;strokeWidth=1;labelBorderColor=none;fontColor=default;labelBackgroundColor=default;html=1;endSize=0;startSize=0;movable=1;resizable=1;rotatable=1;deletable=1;editable=1;locked=0;connectable=1;exitX=0.911;exitY=0.262;exitDx=0;exitDy=0;exitPerimeter=0;" edge="1" parent="nh-JWcSBpbhqLz3bGZsN-340">
          <mxGeometry width="50" height="50" relative="1" as="geometry">
            <mxPoint x="22.774999999999864" y="53.92999999999998" as="sourcePoint" />
            <mxPoint x="4.3799999999999955" y="54" as="targetPoint" />
          </mxGeometry>
        </mxCell>
        <mxCell id="nh-JWcSBpbhqLz3bGZsN-347" value="Q" style="text;html=1;align=center;verticalAlign=middle;resizable=1;points=[];autosize=1;strokeColor=none;fillColor=none;fontFamily=NewsGotT;spacing=-6;movable=1;rotatable=1;deletable=1;editable=1;locked=0;connectable=1;container=0;" vertex="1" parent="nh-JWcSBpbhqLz3bGZsN-340">
          <mxGeometry x="47" y="50" width="10" height="15" as="geometry" />
        </mxCell>
        <mxCell id="nh-JWcSBpbhqLz3bGZsN-348" value="" style="endArrow=none;rounded=0;strokeWidth=1;labelBorderColor=none;fontColor=default;labelBackgroundColor=default;html=1;endSize=0;startSize=0;movable=1;resizable=1;rotatable=1;deletable=1;editable=1;locked=0;connectable=1;" edge="1" parent="nh-JWcSBpbhqLz3bGZsN-340">
          <mxGeometry width="50" height="50" relative="1" as="geometry">
            <mxPoint x="56.5" y="54" as="sourcePoint" />
            <mxPoint x="49" y="54" as="targetPoint" />
          </mxGeometry>
        </mxCell>
        <mxCell id="nh-JWcSBpbhqLz3bGZsN-349" value="" style="group" vertex="1" connectable="0" parent="1">
          <mxGeometry x="540" y="500" width="60" height="80" as="geometry" />
        </mxCell>
        <mxCell id="nh-JWcSBpbhqLz3bGZsN-350" value="" style="whiteSpace=wrap;html=1;verticalAlign=bottom;movable=1;resizable=1;rotatable=1;deletable=1;editable=1;locked=0;connectable=1;container=0;" vertex="1" parent="nh-JWcSBpbhqLz3bGZsN-349">
          <mxGeometry width="60" height="80" as="geometry" />
        </mxCell>
        <mxCell id="nh-JWcSBpbhqLz3bGZsN-351" value="D" style="text;html=1;align=center;verticalAlign=middle;resizable=1;points=[];autosize=1;strokeColor=none;fillColor=none;fontFamily=NewsGotT;spacing=-6;movable=1;rotatable=1;deletable=1;editable=1;locked=0;connectable=1;container=0;" vertex="1" parent="nh-JWcSBpbhqLz3bGZsN-349">
          <mxGeometry x="1.875" y="10" width="10" height="15" as="geometry" />
        </mxCell>
        <mxCell id="nh-JWcSBpbhqLz3bGZsN-352" value="" style="triangle;whiteSpace=wrap;html=1;fontFamily=NewsGotT;movable=1;resizable=1;rotatable=1;deletable=1;editable=1;locked=0;connectable=1;container=0;" vertex="1" parent="nh-JWcSBpbhqLz3bGZsN-349">
          <mxGeometry y="35" width="7.5" height="10" as="geometry" />
        </mxCell>
        <mxCell id="nh-JWcSBpbhqLz3bGZsN-353" value="CLR" style="text;html=1;align=center;verticalAlign=middle;resizable=1;points=[];autosize=1;strokeColor=none;fillColor=none;fontFamily=NewsGotT;spacing=-6;movable=1;rotatable=1;deletable=1;editable=1;locked=0;connectable=1;container=0;" vertex="1" parent="nh-JWcSBpbhqLz3bGZsN-349">
          <mxGeometry y="50" width="25" height="15" as="geometry" />
        </mxCell>
        <mxCell id="nh-JWcSBpbhqLz3bGZsN-354" value="Q" style="text;html=1;align=center;verticalAlign=middle;resizable=1;points=[];autosize=1;strokeColor=none;fillColor=none;fontFamily=NewsGotT;spacing=-6;movable=1;rotatable=1;deletable=1;editable=1;locked=0;connectable=1;container=0;" vertex="1" parent="nh-JWcSBpbhqLz3bGZsN-349">
          <mxGeometry x="47" y="10" width="10" height="15" as="geometry" />
        </mxCell>
        <mxCell id="nh-JWcSBpbhqLz3bGZsN-355" value="" style="endArrow=none;rounded=0;strokeWidth=1;labelBorderColor=none;fontColor=default;labelBackgroundColor=default;html=1;endSize=0;startSize=0;movable=1;resizable=1;rotatable=1;deletable=1;editable=1;locked=0;connectable=1;exitX=0.911;exitY=0.262;exitDx=0;exitDy=0;exitPerimeter=0;" edge="1" parent="nh-JWcSBpbhqLz3bGZsN-349">
          <mxGeometry width="50" height="50" relative="1" as="geometry">
            <mxPoint x="22.774999999999864" y="53.92999999999998" as="sourcePoint" />
            <mxPoint x="4.3799999999999955" y="54" as="targetPoint" />
          </mxGeometry>
        </mxCell>
        <mxCell id="nh-JWcSBpbhqLz3bGZsN-356" value="Q" style="text;html=1;align=center;verticalAlign=middle;resizable=1;points=[];autosize=1;strokeColor=none;fillColor=none;fontFamily=NewsGotT;spacing=-6;movable=1;rotatable=1;deletable=1;editable=1;locked=0;connectable=1;container=0;" vertex="1" parent="nh-JWcSBpbhqLz3bGZsN-349">
          <mxGeometry x="47" y="50" width="10" height="15" as="geometry" />
        </mxCell>
        <mxCell id="nh-JWcSBpbhqLz3bGZsN-357" value="" style="endArrow=none;rounded=0;strokeWidth=1;labelBorderColor=none;fontColor=default;labelBackgroundColor=default;html=1;endSize=0;startSize=0;movable=1;resizable=1;rotatable=1;deletable=1;editable=1;locked=0;connectable=1;" edge="1" parent="nh-JWcSBpbhqLz3bGZsN-349">
          <mxGeometry width="50" height="50" relative="1" as="geometry">
            <mxPoint x="56.5" y="54" as="sourcePoint" />
            <mxPoint x="49" y="54" as="targetPoint" />
          </mxGeometry>
        </mxCell>
        <mxCell id="nh-JWcSBpbhqLz3bGZsN-358" value="" style="group" vertex="1" connectable="0" parent="1">
          <mxGeometry x="540" y="600" width="60" height="80" as="geometry" />
        </mxCell>
        <mxCell id="nh-JWcSBpbhqLz3bGZsN-359" value="" style="whiteSpace=wrap;html=1;verticalAlign=bottom;movable=1;resizable=1;rotatable=1;deletable=1;editable=1;locked=0;connectable=1;container=0;" vertex="1" parent="nh-JWcSBpbhqLz3bGZsN-358">
          <mxGeometry width="60" height="80" as="geometry" />
        </mxCell>
        <mxCell id="nh-JWcSBpbhqLz3bGZsN-360" value="D" style="text;html=1;align=center;verticalAlign=middle;resizable=1;points=[];autosize=1;strokeColor=none;fillColor=none;fontFamily=NewsGotT;spacing=-6;movable=1;rotatable=1;deletable=1;editable=1;locked=0;connectable=1;container=0;" vertex="1" parent="nh-JWcSBpbhqLz3bGZsN-358">
          <mxGeometry x="1.875" y="10" width="10" height="15" as="geometry" />
        </mxCell>
        <mxCell id="nh-JWcSBpbhqLz3bGZsN-361" value="" style="triangle;whiteSpace=wrap;html=1;fontFamily=NewsGotT;movable=1;resizable=1;rotatable=1;deletable=1;editable=1;locked=0;connectable=1;container=0;" vertex="1" parent="nh-JWcSBpbhqLz3bGZsN-358">
          <mxGeometry y="35" width="7.5" height="10" as="geometry" />
        </mxCell>
        <mxCell id="nh-JWcSBpbhqLz3bGZsN-362" value="CLR" style="text;html=1;align=center;verticalAlign=middle;resizable=1;points=[];autosize=1;strokeColor=none;fillColor=none;fontFamily=NewsGotT;spacing=-6;movable=1;rotatable=1;deletable=1;editable=1;locked=0;connectable=1;container=0;" vertex="1" parent="nh-JWcSBpbhqLz3bGZsN-358">
          <mxGeometry y="50" width="25" height="15" as="geometry" />
        </mxCell>
        <mxCell id="nh-JWcSBpbhqLz3bGZsN-363" value="Q" style="text;html=1;align=center;verticalAlign=middle;resizable=1;points=[];autosize=1;strokeColor=none;fillColor=none;fontFamily=NewsGotT;spacing=-6;movable=1;rotatable=1;deletable=1;editable=1;locked=0;connectable=1;container=0;" vertex="1" parent="nh-JWcSBpbhqLz3bGZsN-358">
          <mxGeometry x="47" y="10" width="10" height="15" as="geometry" />
        </mxCell>
        <mxCell id="nh-JWcSBpbhqLz3bGZsN-364" value="" style="endArrow=none;rounded=0;strokeWidth=1;labelBorderColor=none;fontColor=default;labelBackgroundColor=default;html=1;endSize=0;startSize=0;movable=1;resizable=1;rotatable=1;deletable=1;editable=1;locked=0;connectable=1;exitX=0.911;exitY=0.262;exitDx=0;exitDy=0;exitPerimeter=0;" edge="1" parent="nh-JWcSBpbhqLz3bGZsN-358">
          <mxGeometry width="50" height="50" relative="1" as="geometry">
            <mxPoint x="22.774999999999864" y="53.92999999999998" as="sourcePoint" />
            <mxPoint x="4.3799999999999955" y="54" as="targetPoint" />
          </mxGeometry>
        </mxCell>
        <mxCell id="nh-JWcSBpbhqLz3bGZsN-365" value="Q" style="text;html=1;align=center;verticalAlign=middle;resizable=1;points=[];autosize=1;strokeColor=none;fillColor=none;fontFamily=NewsGotT;spacing=-6;movable=1;rotatable=1;deletable=1;editable=1;locked=0;connectable=1;container=0;" vertex="1" parent="nh-JWcSBpbhqLz3bGZsN-358">
          <mxGeometry x="47" y="50" width="10" height="15" as="geometry" />
        </mxCell>
        <mxCell id="nh-JWcSBpbhqLz3bGZsN-366" value="" style="endArrow=none;rounded=0;strokeWidth=1;labelBorderColor=none;fontColor=default;labelBackgroundColor=default;html=1;endSize=0;startSize=0;movable=1;resizable=1;rotatable=1;deletable=1;editable=1;locked=0;connectable=1;" edge="1" parent="nh-JWcSBpbhqLz3bGZsN-358">
          <mxGeometry width="50" height="50" relative="1" as="geometry">
            <mxPoint x="56.5" y="54" as="sourcePoint" />
            <mxPoint x="49" y="54" as="targetPoint" />
          </mxGeometry>
        </mxCell>
        <mxCell id="nh-JWcSBpbhqLz3bGZsN-368" value="" style="endArrow=none;html=1;rounded=0;strokeColor=default;align=center;verticalAlign=middle;fontFamily=Helvetica;fontSize=11;fontColor=default;labelBackgroundColor=default;edgeStyle=orthogonalEdgeStyle;startSize=3;entryX=0;entryY=0.5;entryDx=0;entryDy=0;endFill=0;startArrow=oval;startFill=1;" edge="1" parent="1" target="nh-JWcSBpbhqLz3bGZsN-341">
          <mxGeometry width="50" height="50" relative="1" as="geometry">
            <mxPoint x="525" y="340" as="sourcePoint" />
            <mxPoint x="565" y="285" as="targetPoint" />
            <Array as="points">
              <mxPoint x="525" y="440" />
            </Array>
          </mxGeometry>
        </mxCell>
        <mxCell id="nh-JWcSBpbhqLz3bGZsN-370" value="" style="endArrow=none;html=1;rounded=0;strokeColor=default;align=center;verticalAlign=middle;fontFamily=Helvetica;fontSize=11;fontColor=default;labelBackgroundColor=default;edgeStyle=orthogonalEdgeStyle;startSize=3;entryX=0;entryY=0.5;entryDx=0;entryDy=0;endFill=0;startArrow=oval;startFill=1;" edge="1" parent="1">
          <mxGeometry width="50" height="50" relative="1" as="geometry">
            <mxPoint x="525" y="440" as="sourcePoint" />
            <mxPoint x="540" y="540" as="targetPoint" />
            <Array as="points">
              <mxPoint x="525" y="540" />
            </Array>
          </mxGeometry>
        </mxCell>
        <mxCell id="nh-JWcSBpbhqLz3bGZsN-371" value="" style="endArrow=none;html=1;rounded=0;strokeColor=default;align=center;verticalAlign=middle;fontFamily=Helvetica;fontSize=11;fontColor=default;labelBackgroundColor=default;edgeStyle=orthogonalEdgeStyle;startSize=3;entryX=0;entryY=0.5;entryDx=0;entryDy=0;endFill=0;startArrow=oval;startFill=1;" edge="1" parent="1">
          <mxGeometry width="50" height="50" relative="1" as="geometry">
            <mxPoint x="525" y="540" as="sourcePoint" />
            <mxPoint x="540" y="640" as="targetPoint" />
            <Array as="points">
              <mxPoint x="525" y="640" />
            </Array>
          </mxGeometry>
        </mxCell>
        <mxCell id="nh-JWcSBpbhqLz3bGZsN-372" value="" style="endArrow=classic;html=1;rounded=0;strokeColor=default;align=center;verticalAlign=middle;fontFamily=Helvetica;fontSize=11;fontColor=default;labelBackgroundColor=default;edgeStyle=orthogonalEdgeStyle;startSize=3;entryX=0;entryY=0.75;entryDx=0;entryDy=0;startArrow=oval;startFill=1;" edge="1" parent="1" target="nh-JWcSBpbhqLz3bGZsN-332">
          <mxGeometry width="50" height="50" relative="1" as="geometry">
            <mxPoint x="90" y="70" as="sourcePoint" />
            <mxPoint x="505" y="175" as="targetPoint" />
            <Array as="points">
              <mxPoint x="90" y="71" />
              <mxPoint x="515" y="71" />
              <mxPoint x="515" y="360" />
            </Array>
          </mxGeometry>
        </mxCell>
        <mxCell id="nh-JWcSBpbhqLz3bGZsN-373" value="" style="endArrow=classic;html=1;rounded=0;strokeColor=default;align=center;verticalAlign=middle;fontFamily=Helvetica;fontSize=11;fontColor=default;labelBackgroundColor=default;edgeStyle=orthogonalEdgeStyle;startSize=3;entryX=0;entryY=0.75;entryDx=0;entryDy=0;startArrow=oval;startFill=1;" edge="1" parent="1" target="nh-JWcSBpbhqLz3bGZsN-341">
          <mxGeometry width="50" height="50" relative="1" as="geometry">
            <mxPoint x="515" y="360" as="sourcePoint" />
            <mxPoint x="190" y="415" as="targetPoint" />
            <Array as="points">
              <mxPoint x="515" y="460" />
            </Array>
          </mxGeometry>
        </mxCell>
        <mxCell id="nh-JWcSBpbhqLz3bGZsN-374" value="" style="endArrow=classic;html=1;rounded=0;strokeColor=default;align=center;verticalAlign=middle;fontFamily=Helvetica;fontSize=11;fontColor=default;labelBackgroundColor=default;edgeStyle=orthogonalEdgeStyle;startSize=3;entryX=0;entryY=0.75;entryDx=0;entryDy=0;startArrow=oval;startFill=1;" edge="1" parent="1">
          <mxGeometry width="50" height="50" relative="1" as="geometry">
            <mxPoint x="515" y="460" as="sourcePoint" />
            <mxPoint x="540" y="560" as="targetPoint" />
            <Array as="points">
              <mxPoint x="515" y="560" />
            </Array>
          </mxGeometry>
        </mxCell>
        <mxCell id="nh-JWcSBpbhqLz3bGZsN-375" value="" style="endArrow=classic;html=1;rounded=0;strokeColor=default;align=center;verticalAlign=middle;fontFamily=Helvetica;fontSize=11;fontColor=default;labelBackgroundColor=default;edgeStyle=orthogonalEdgeStyle;startSize=3;entryX=0;entryY=0.75;entryDx=0;entryDy=0;startArrow=oval;startFill=1;" edge="1" parent="1">
          <mxGeometry width="50" height="50" relative="1" as="geometry">
            <mxPoint x="515" y="560" as="sourcePoint" />
            <mxPoint x="540" y="660" as="targetPoint" />
            <Array as="points">
              <mxPoint x="515" y="660" />
            </Array>
          </mxGeometry>
        </mxCell>
        <mxCell id="nh-JWcSBpbhqLz3bGZsN-377" value="x1_re_x_w_re" style="edgeStyle=orthogonalEdgeStyle;shape=connector;rounded=0;orthogonalLoop=1;jettySize=auto;html=1;exitX=1;exitY=0.3;exitDx=0;exitDy=0;exitPerimeter=0;entryX=0;entryY=0.25;entryDx=0;entryDy=0;strokeColor=default;align=center;verticalAlign=middle;fontFamily=NewsGotT;fontSize=11;fontColor=default;labelBackgroundColor=default;startArrow=none;startFill=0;startSize=3;endArrow=classic;endFill=1;" edge="1" parent="1" source="nh-JWcSBpbhqLz3bGZsN-167" target="nh-JWcSBpbhqLz3bGZsN-332">
          <mxGeometry x="-0.3548" y="9" relative="1" as="geometry">
            <Array as="points">
              <mxPoint x="505" y="324" />
              <mxPoint x="505" y="320" />
            </Array>
            <mxPoint as="offset" />
          </mxGeometry>
        </mxCell>
        <mxCell id="nh-JWcSBpbhqLz3bGZsN-378" value="x1_im_x_w_im" style="edgeStyle=orthogonalEdgeStyle;shape=connector;rounded=0;orthogonalLoop=1;jettySize=auto;html=1;exitX=1;exitY=0.3;exitDx=0;exitDy=0;exitPerimeter=0;entryX=0;entryY=0.25;entryDx=0;entryDy=0;strokeColor=default;align=center;verticalAlign=middle;fontFamily=NewsGotT;fontSize=11;fontColor=default;labelBackgroundColor=default;startArrow=none;startFill=0;startSize=3;endArrow=classic;endFill=1;" edge="1" parent="1" source="nh-JWcSBpbhqLz3bGZsN-180" target="nh-JWcSBpbhqLz3bGZsN-341">
          <mxGeometry x="-0.3548" y="9" relative="1" as="geometry">
            <Array as="points">
              <mxPoint x="505" y="424" />
              <mxPoint x="505" y="420" />
            </Array>
            <mxPoint as="offset" />
          </mxGeometry>
        </mxCell>
        <mxCell id="nh-JWcSBpbhqLz3bGZsN-379" value="x1_re_x_w_im" style="edgeStyle=orthogonalEdgeStyle;shape=connector;rounded=0;orthogonalLoop=1;jettySize=auto;html=1;exitX=1;exitY=0.3;exitDx=0;exitDy=0;exitPerimeter=0;entryX=0;entryY=0.25;entryDx=0;entryDy=0;strokeColor=default;align=center;verticalAlign=middle;fontFamily=NewsGotT;fontSize=11;fontColor=default;labelBackgroundColor=default;startArrow=none;startFill=0;startSize=3;endArrow=classic;endFill=1;" edge="1" parent="1" source="nh-JWcSBpbhqLz3bGZsN-190" target="nh-JWcSBpbhqLz3bGZsN-350">
          <mxGeometry x="-0.3548" y="9" relative="1" as="geometry">
            <mxPoint x="420" y="524" as="sourcePoint" />
            <mxPoint x="480" y="520" as="targetPoint" />
            <Array as="points">
              <mxPoint x="505" y="524" />
              <mxPoint x="505" y="520" />
            </Array>
            <mxPoint as="offset" />
          </mxGeometry>
        </mxCell>
        <mxCell id="nh-JWcSBpbhqLz3bGZsN-380" value="x1_im_x_w_re" style="edgeStyle=orthogonalEdgeStyle;shape=connector;rounded=0;orthogonalLoop=1;jettySize=auto;html=1;exitX=1;exitY=0.3;exitDx=0;exitDy=0;exitPerimeter=0;entryX=0;entryY=0.25;entryDx=0;entryDy=0;strokeColor=default;align=center;verticalAlign=middle;fontFamily=NewsGotT;fontSize=11;fontColor=default;labelBackgroundColor=default;startArrow=none;startFill=0;startSize=3;endArrow=classic;endFill=1;" edge="1" parent="1" target="nh-JWcSBpbhqLz3bGZsN-359">
          <mxGeometry x="-0.3548" y="9" relative="1" as="geometry">
            <mxPoint x="420" y="624" as="sourcePoint" />
            <mxPoint x="480" y="620" as="targetPoint" />
            <Array as="points">
              <mxPoint x="505" y="624" />
              <mxPoint x="505" y="620" />
            </Array>
            <mxPoint as="offset" />
          </mxGeometry>
        </mxCell>
        <mxCell id="nh-JWcSBpbhqLz3bGZsN-382" value="" style="group;fontFamily=NewsGotT;" vertex="1" connectable="0" parent="1">
          <mxGeometry x="660" y="550" width="73" height="70" as="geometry" />
        </mxCell>
        <mxCell id="nh-JWcSBpbhqLz3bGZsN-383" value="&lt;font&gt;ADD/&lt;br&gt;SUB&lt;br&gt;&lt;/font&gt;" style="rounded=0;whiteSpace=wrap;html=1;points=[[0,0.25,0,0,0],[0,0.5,0,0,0],[0,0.75,0,0,0],[1,0.3,0,0,0],[1,0.7,0,0,0]];fontFamily=NewsGotT;" vertex="1" parent="nh-JWcSBpbhqLz3bGZsN-382">
          <mxGeometry width="70" height="70" as="geometry" />
        </mxCell>
        <mxCell id="nh-JWcSBpbhqLz3bGZsN-384" value="A" style="text;html=1;align=center;verticalAlign=middle;resizable=0;points=[];autosize=1;strokeColor=none;fillColor=none;fontSize=11;spacing=-6;fontFamily=NewsGotT;" vertex="1" parent="nh-JWcSBpbhqLz3bGZsN-382">
          <mxGeometry y="12" width="10" height="10" as="geometry" />
        </mxCell>
        <mxCell id="nh-JWcSBpbhqLz3bGZsN-385" value="B" style="text;html=1;align=center;verticalAlign=middle;resizable=0;points=[];autosize=1;strokeColor=none;fillColor=none;fontSize=11;spacing=-6;fontFamily=NewsGotT;" vertex="1" parent="nh-JWcSBpbhqLz3bGZsN-382">
          <mxGeometry y="29" width="10" height="10" as="geometry" />
        </mxCell>
        <mxCell id="nh-JWcSBpbhqLz3bGZsN-386" value="CIN" style="text;html=1;align=center;verticalAlign=middle;resizable=0;points=[];autosize=1;strokeColor=none;fillColor=none;fontSize=11;spacing=-8;fontFamily=NewsGotT;" vertex="1" parent="nh-JWcSBpbhqLz3bGZsN-382">
          <mxGeometry y="46" width="20" height="10" as="geometry" />
        </mxCell>
        <mxCell id="nh-JWcSBpbhqLz3bGZsN-387" value="R" style="text;html=1;align=center;verticalAlign=middle;resizable=0;points=[];autosize=1;strokeColor=none;fillColor=none;fontSize=11;spacing=-6;fontFamily=NewsGotT;" vertex="1" parent="nh-JWcSBpbhqLz3bGZsN-382">
          <mxGeometry x="58" y="15" width="10" height="10" as="geometry" />
        </mxCell>
        <mxCell id="nh-JWcSBpbhqLz3bGZsN-388" value="V" style="text;html=1;align=center;verticalAlign=middle;resizable=0;points=[];autosize=1;strokeColor=none;fillColor=none;fontSize=11;spacing=-6;fontFamily=NewsGotT;" vertex="1" parent="nh-JWcSBpbhqLz3bGZsN-382">
          <mxGeometry x="58" y="43" width="10" height="10" as="geometry" />
        </mxCell>
        <mxCell id="nh-JWcSBpbhqLz3bGZsN-390" value="x1_re_x_w_re_r" style="edgeStyle=orthogonalEdgeStyle;shape=connector;rounded=0;orthogonalLoop=1;jettySize=auto;html=1;exitX=1;exitY=0.25;exitDx=0;exitDy=0;entryX=0;entryY=0.25;entryDx=0;entryDy=0;entryPerimeter=0;strokeColor=default;align=center;verticalAlign=middle;fontFamily=NewsGotT;fontSize=11;fontColor=default;labelBackgroundColor=default;startArrow=none;startFill=0;startSize=3;endArrow=classic;endFill=1;" edge="1" parent="1" source="nh-JWcSBpbhqLz3bGZsN-332" target="nh-JWcSBpbhqLz3bGZsN-156">
          <mxGeometry x="-0.2558" y="10" relative="1" as="geometry">
            <Array as="points">
              <mxPoint x="645" y="320" />
              <mxPoint x="645" y="367" />
            </Array>
            <mxPoint as="offset" />
          </mxGeometry>
        </mxCell>
        <mxCell id="nh-JWcSBpbhqLz3bGZsN-391" value="x1_im_x_w_im_r" style="edgeStyle=orthogonalEdgeStyle;shape=connector;rounded=0;orthogonalLoop=1;jettySize=auto;html=1;exitX=1;exitY=0.25;exitDx=0;exitDy=0;entryX=0;entryY=0.5;entryDx=0;entryDy=0;entryPerimeter=0;strokeColor=default;align=center;verticalAlign=middle;fontFamily=NewsGotT;fontSize=11;fontColor=default;labelBackgroundColor=default;startArrow=none;startFill=0;startSize=3;endArrow=classic;endFill=1;" edge="1" parent="1" source="nh-JWcSBpbhqLz3bGZsN-341" target="nh-JWcSBpbhqLz3bGZsN-156">
          <mxGeometry x="-0.1577" y="-10" relative="1" as="geometry">
            <Array as="points">
              <mxPoint x="645" y="420" />
              <mxPoint x="645" y="385" />
            </Array>
            <mxPoint as="offset" />
          </mxGeometry>
        </mxCell>
        <mxCell id="nh-JWcSBpbhqLz3bGZsN-392" value="1" style="text;html=1;align=center;verticalAlign=middle;resizable=0;points=[];autosize=1;strokeColor=none;fillColor=none;fontFamily=NewsGotT;fontSize=11;fontColor=default;labelBackgroundColor=default;spacing=-7;" vertex="1" parent="1">
          <mxGeometry x="628" y="398" width="10" height="10" as="geometry" />
        </mxCell>
        <mxCell id="nh-JWcSBpbhqLz3bGZsN-395" style="edgeStyle=none;shape=connector;rounded=0;orthogonalLoop=1;jettySize=auto;html=1;entryX=0;entryY=0.75;entryDx=0;entryDy=0;entryPerimeter=0;strokeColor=default;align=center;verticalAlign=middle;fontFamily=Helvetica;fontSize=11;fontColor=default;labelBackgroundColor=default;startArrow=none;startFill=0;startSize=3;endArrow=classic;endFill=1;" edge="1" parent="1" source="nh-JWcSBpbhqLz3bGZsN-392" target="nh-JWcSBpbhqLz3bGZsN-156">
          <mxGeometry relative="1" as="geometry" />
        </mxCell>
        <mxCell id="nh-JWcSBpbhqLz3bGZsN-399" value="x1_re_x_w_im_r" style="edgeStyle=orthogonalEdgeStyle;shape=connector;rounded=0;orthogonalLoop=1;jettySize=auto;html=1;exitX=1;exitY=0.25;exitDx=0;exitDy=0;entryX=0;entryY=0.25;entryDx=0;entryDy=0;entryPerimeter=0;strokeColor=default;align=center;verticalAlign=middle;fontFamily=NewsGotT;fontSize=11;fontColor=default;labelBackgroundColor=default;startArrow=none;startFill=0;startSize=3;endArrow=classic;endFill=1;" edge="1" parent="1" target="nh-JWcSBpbhqLz3bGZsN-383">
          <mxGeometry x="-0.2558" y="10" relative="1" as="geometry">
            <mxPoint x="600" y="520" as="sourcePoint" />
            <mxPoint x="660" y="568" as="targetPoint" />
            <Array as="points">
              <mxPoint x="645" y="520" />
              <mxPoint x="645" y="568" />
            </Array>
            <mxPoint as="offset" />
          </mxGeometry>
        </mxCell>
        <mxCell id="nh-JWcSBpbhqLz3bGZsN-400" value="x1_im_x_w_re_r" style="edgeStyle=orthogonalEdgeStyle;shape=connector;rounded=0;orthogonalLoop=1;jettySize=auto;html=1;exitX=1;exitY=0.25;exitDx=0;exitDy=0;entryX=0;entryY=0.5;entryDx=0;entryDy=0;entryPerimeter=0;strokeColor=default;align=center;verticalAlign=middle;fontFamily=NewsGotT;fontSize=11;fontColor=default;labelBackgroundColor=default;startArrow=none;startFill=0;startSize=3;endArrow=classic;endFill=1;" edge="1" parent="1" target="nh-JWcSBpbhqLz3bGZsN-383">
          <mxGeometry x="-0.1577" y="-10" relative="1" as="geometry">
            <mxPoint x="600" y="620" as="sourcePoint" />
            <mxPoint x="660" y="585" as="targetPoint" />
            <Array as="points">
              <mxPoint x="645" y="620" />
              <mxPoint x="645" y="585" />
            </Array>
            <mxPoint as="offset" />
          </mxGeometry>
        </mxCell>
        <mxCell id="nh-JWcSBpbhqLz3bGZsN-401" style="edgeStyle=none;shape=connector;rounded=0;orthogonalLoop=1;jettySize=auto;html=1;entryX=0;entryY=0.75;entryDx=0;entryDy=0;entryPerimeter=0;strokeColor=default;align=center;verticalAlign=middle;fontFamily=Helvetica;fontSize=11;fontColor=default;labelBackgroundColor=default;startArrow=none;startFill=0;startSize=3;endArrow=classic;endFill=1;" edge="1" parent="1">
          <mxGeometry relative="1" as="geometry">
            <mxPoint x="638" y="603" as="sourcePoint" />
            <mxPoint x="660" y="603" as="targetPoint" />
          </mxGeometry>
        </mxCell>
        <mxCell id="nh-JWcSBpbhqLz3bGZsN-402" value="0" style="text;html=1;align=center;verticalAlign=middle;resizable=0;points=[];autosize=1;strokeColor=none;fillColor=none;fontFamily=NewsGotT;fontSize=11;fontColor=default;labelBackgroundColor=default;spacing=-7;" vertex="1" parent="1">
          <mxGeometry x="628" y="597" width="10" height="10" as="geometry" />
        </mxCell>
      </root>
    </mxGraphModel>
  </diagram>
</mxfile>
